<svg xmlns="http://www.w3.org/2000/svg" width="512" height="512" xml:space="preserve">
  <path fill-rule="evenodd" clip-rule="evenodd" fill="#999" d="M308 114c-63-29-106 18-131 63-23 40-35 81-41 133-30 5-66-12-62-44 2-19 16-43 24-61 25-57 59-119 119-135 39-11 72 19 91 44z"/>
  <path fill-rule="evenodd" clip-rule="evenodd" fill="#464647" d="M411 176c2-1 2 1 3 1-5 30-16 55-34 73-2-10-6-17-8-26 13-16 29-29 39-48zm-95 123c-24 20-57 38-91 57-32 17-69 38-112 36-49-3-68-53-47-100 8 11 17 24 34 29 12 3 24 3 36 2 56-5 126-37 161-53 7-4 15 27 19 29z"/>
  <path fill-rule="evenodd" clip-rule="evenodd" fill="#464647" d="M480 356c-7 22-45 31-74 20-40-15-66-59-88-101-22-43-39-91-69-119-8-8-18-13-32-15 15-25 66-34 91-16 19 14 31 44 42 73 15 40 26 84 47 121 16 29 42 59 83 37z"/>
</svg>
